<svg width="222" height="54" viewBox="0 0 222 54" fill="none" xmlns="http://www.w3.org/2000/svg">
<path d="M70.9822 29.2933L84.9669 45.5883H82.6304L69.56 30.5206L64.0745 35.3613V45.5883H62.3475V16.8505H64.0745V32.975L82.5627 16.8164H85.3055L70.9822 29.2933Z" fill="white"/>
<path d="M115.205 45.5882H113.275L109.516 36.384H95.3962L91.6376 45.5882H89.7075L101.661 16.8163H103.252L115.205 45.5882ZM102.473 19.1004L96.0734 34.8158H108.941L102.473 19.1004ZM106.232 8.63477L100.983 14.021H98.7146L103.32 8.63477H106.232Z" fill="white"/>
<path d="M140.499 36.8273V38.8386C140.499 40.8499 139.585 42.4862 137.723 43.7475C135.86 44.9748 133.389 45.6225 130.307 45.6225H120.318V16.8506H130.984C136.91 16.8506 139.856 19.0323 139.856 23.3618V25.1685C139.856 27.7594 138.536 29.6002 135.894 30.6911C138.942 31.8502 140.499 33.8955 140.499 36.8273ZM122.011 29.907H130.951C133.287 29.907 135.082 29.4639 136.267 28.6116C137.418 27.8616 138.129 26.5321 138.095 25.1344V23.3277C138.095 21.5891 137.52 20.3278 136.335 19.5778C135.149 18.7937 133.355 18.4187 130.951 18.4187H121.977L122.011 29.907ZM130.273 31.4752H121.977V44.0543H130.273C132.881 44.0543 134.946 43.5771 136.47 42.6226C137.994 41.668 138.739 40.4067 138.773 38.8386V36.8273C138.739 33.2478 135.928 31.4752 130.273 31.4752Z" fill="white"/>
<path d="M170.839 45.5883H168.909L165.15 36.384H151.03L147.272 45.5883H145.341L157.294 16.8164H158.886L170.839 45.5883ZM158.107 19.1004L151.707 34.85H164.575L158.107 19.1004Z" fill="white"/>
<path d="M176.088 16.8506H177.815V44.0543H194.136V45.6225H176.088V16.8506Z" fill="white"/>
<path d="M221.902 45.5883H219.972L216.213 36.384H202.093L198.334 45.5883H196.404L208.357 16.8164H209.949L221.902 45.5883ZM209.17 19.1004L202.77 34.85H215.637L209.17 19.1004Z" fill="white"/>
<path d="M45.383 19.8506C45.2137 18.453 44.5027 17.3621 43.4868 16.4417C42.1662 15.2826 40.6086 14.4985 38.9833 13.8508C35.5971 12.5213 32.0756 11.7032 28.5201 10.9532C26.2853 10.4759 24.0504 9.96457 21.7817 9.48731C21.7817 9.45322 21.7817 9.41913 21.7817 9.38504C21.8833 9.35095 22.0188 9.31686 22.1203 9.28277C26.6916 7.91917 31.3645 7.06693 36.0712 6.28286C36.5114 6.21468 36.7146 6.35104 36.9516 6.69194C37.832 7.95326 39.0849 8.56688 40.6086 8.4987C42.8096 8.36234 44.4349 6.69194 44.5704 4.47609C44.7397 1.91935 42.5048 -0.466948 39.5589 0.0784908C37.8658 0.3853 36.7823 1.47618 36.2744 3.14658C36.2405 3.28294 36.0373 3.48748 35.9019 3.48748C33.4639 3.93065 31.0597 4.30564 28.6217 4.7829C25.5403 5.39652 22.4928 6.1465 19.513 7.16919C18.9374 7.37373 18.3617 7.64645 17.8877 8.02144C16.9057 8.77142 16.9734 10.1009 17.9554 10.8509C18.1586 11.0214 18.3956 11.1577 18.6326 11.26C19.2083 11.4986 19.7501 11.7372 20.3596 11.8736C23.1362 12.5213 25.9128 13.1008 28.6894 13.7485C31.0259 14.294 33.3284 14.8735 35.631 15.5553C37.5272 16.1008 39.3557 16.7826 40.9811 17.9416C41.252 18.1462 41.5567 18.3848 41.7938 18.6234C41.7938 18.6234 43.5884 20.4984 41.489 20.9756C40.5409 21.1802 39.5928 21.2824 38.6447 21.2824C36.5791 21.2483 34.5136 21.1461 32.4819 21.0438C30.9581 20.9756 29.4005 20.8393 27.8768 20.7711C24.7954 20.7029 21.714 20.6688 18.6665 21.2824C17.2443 21.5892 15.856 21.9983 14.637 22.8506C13.3841 23.7369 12.7069 24.9641 13.0455 26.5323C13.2148 27.2822 13.4857 27.9981 13.8921 28.6458C14.5354 29.6345 15.2804 30.589 16.0253 31.5094C17.3798 33.2139 18.8358 34.8502 20.1903 36.5547C21.3415 38.0547 22.2558 39.6569 22.6621 41.5318C23.1701 43.7477 22.4928 45.2817 20.5627 46.4408C20.4273 46.5431 20.258 46.6112 20.1225 46.6794C18.7681 47.3953 17.2782 47.7703 15.7883 48.043C13.5534 48.4521 11.3186 48.5203 9.0499 48.5885C8.57584 48.5885 8.27109 48.4862 8.03406 47.9407C7.28911 46.134 5.39288 45.1113 3.3612 45.5204C1.49883 45.8953 0.11052 47.5658 0.00893621 49.3725C-0.126509 51.5543 1.29567 53.2588 3.05645 53.7701C4.91882 54.3156 6.9505 53.4974 7.89861 51.7929C8.10178 51.4179 8.30495 51.3156 8.71128 51.3156C11.7249 51.3497 14.7047 51.1452 17.6507 50.4634C19.513 50.0202 21.3077 49.4066 22.8653 48.2135C24.6599 46.8499 25.6419 45.0431 25.5742 42.725C25.5403 40.6114 24.7954 38.7365 23.7796 36.9297C22.5605 34.782 20.9352 32.9753 19.3776 31.1003C18.3279 29.839 17.2782 28.5777 16.3301 27.2141C15.382 25.8164 15.5851 25.2369 17.1427 24.5551C18.6326 23.9073 20.1903 23.6346 21.7817 23.5664C23.5087 23.4642 25.2356 23.4301 26.9625 23.4642C29.1635 23.5324 31.3645 23.6687 33.5655 23.8051C36.0712 23.9755 38.5431 24.146 41.0488 23.8733C42.0646 23.771 43.0805 23.5324 43.9609 22.9528C45.0783 22.271 45.5524 21.2142 45.383 19.8506Z" fill="white"/>
</svg>
