<svg xmlns="http://www.w3.org/2000/svg" viewBox="0 0 674.57 162.84"><defs><style>.cls-1,.cls-3{fill:#000;}.cls-1,.cls-2{stroke:#000;stroke-miterlimit:10;stroke-width:8px;}.cls-2{fill:none;}</style></defs><title>logo svg</title><g id="Layer_2" data-name="Layer 2"><g id="Layer_1-2" data-name="Layer 1"><circle class="cls-1" cx="12.68" cy="150.16" r="8.68"/><circle class="cls-1" cx="123" cy="12.68" r="8.68"/><path class="cls-2" d="M12.88,150.33s61.52,6.36,60.67-21.22S24.34,79.47,52.34,69.71s89.1,9.76,81-11.88S36.22,34.07,60.83,25.58,123.2,12.85,123.2,12.85"/><path class="cls-3" d="M215.68,88.43l42.55,49.25h-7.07l-39.7-45.53-16.75,14.64v30.89H189.5V50.84h5.21V99.59l56.2-48.75h8.31Z"/><path class="cls-3" d="M350.16,137.68h-5.83l-11.42-27.79H290l-11.41,27.79h-5.83L309.1,50.84h4.83Zm-38.71-80L292,105.18h39.08ZM322.87,26l-16,16.25H300l14-16.25Z"/><path class="cls-3" d="M427,111.17v6.07q0,9.17-8.44,14.8t-22.57,5.64h-30.4V50.84H398q27,0,27,19.63v5.47q0,11.69-12,16.65Q427,97.92,427,111.17Zm-56.2-20.88H398q10.68,0,16.19-3.87a12.17,12.17,0,0,0,5.52-10.5v-5.5q0-7.86-5.39-11.37T398,55.55H370.75ZM395.94,95H370.75v38h25.19q11.91,0,18.85-4.3t6.95-11.38v-6.11Q421.74,95,395.94,95Z"/><path class="cls-3" d="M519.25,137.68h-5.83L502,109.89H459.08l-11.41,27.79h-5.83l36.35-86.84H483Zm-38.71-80-19.47,47.52h39.07Z"/><path class="cls-3" d="M535.25,50.84h5.21V133h49.63v4.71H535.25Z"/><path class="cls-3" d="M674.57,137.68h-5.83l-11.41-27.79H614.4L603,137.68h-5.83l36.35-86.84h4.84Zm-38.71-80-19.47,47.52h39.08Z"/></g></g></svg>